<?xml version="1.0" encoding="utf-8"?>
<!-- Generator: Adobe Illustrator 24.1.1, SVG Export Plug-In . SVG Version: 6.00 Build 0)  -->
<svg version="1.1" id="Layer_1" xmlns="http://www.w3.org/2000/svg" xmlns:xlink="http://www.w3.org/1999/xlink" x="0px" y="0px"
	 viewBox="0 0 512 512" style="enable-background:new 0 0 512 512;" xml:space="preserve">
<g>
	<path d="M413.8,4.2C398.1-3.7,355.8-1,303,17.5c-89.7,63.3-163.7,153.1-171.6,301c0,5.2-10.5,0-13.2-2.7
		c-23.7-44.9-34.3-95.1-13.2-169c5.2-5.2-7.9-13.2-7.9-10.5c-5.3,2.6-23.7,23.7-37,44.8C-0.6,286.6,39,426.7,144.7,484.7
		c105.5,58.1,242.8,21.1,303.6-87.2C519.6,273.5,456.2,28,413.8,4.2L413.8,4.2z"/>
</g>
</svg>
